<?xml version="1.0" encoding="utf-8"?>
<!-- Generator: Adobe Illustrator 16.0.0, SVG Export Plug-In . SVG Version: 6.00 Build 0)  -->
<!DOCTYPE svg PUBLIC "-//W3C//DTD SVG 1.1//EN" "http://www.w3.org/Graphics/SVG/1.1/DTD/svg11.dtd">
<svg version="1.1"
	 id="svg2" xmlns:cc="http://creativecommons.org/ns#" xmlns:svg="http://www.w3.org/2000/svg" xmlns:sodipodi="http://sodipodi.sourceforge.net/DTD/sodipodi-0.dtd" xmlns:rdf="http://www.w3.org/1999/02/22-rdf-syntax-ns#" xmlns:dc="http://purl.org/dc/elements/1.1/" xmlns:inkscape="http://www.inkscape.org/namespaces/inkscape"
	 xmlns="http://www.w3.org/2000/svg" xmlns:xlink="http://www.w3.org/1999/xlink" x="0px" y="0px" width="16px" height="16px"
	 viewBox="0 0 16 16" enable-background="new 0 0 16 16" xml:space="preserve">
<g id="layer1" transform="translate(0,-1036.3622)">
	<path id="path2985" fill="#999999" d="M15,1039.362c0,1.104-0.896,2-2,2s-2-0.896-2-2s0.896-2,2-2S15,1038.258,15,1039.362z"/>
	<path id="path2985-1" fill="#999999" d="M15,1049.362c0,1.104-0.896,2-2,2s-2-0.896-2-2s0.896-2,2-2S15,1048.258,15,1049.362z"/>
	<path id="path2985-1-7" fill="#999999" d="M5,1044.362c0,1.104-0.896,2-2,2s-2-0.896-2-2s0.896-2,2-2S5,1043.258,5,1044.362z"/>
	<path id="path3791" fill="none" stroke="#999999" d="M13,1039.362l-10,5l10,5"/>
</g>
</svg>
